<svg width="433" height="283" viewBox="0 0 433 283" fill="none" xmlns="http://www.w3.org/2000/svg">
<path d="M37.915 121H11.9254L12.0829 112.731H37.915C46.1582 112.731 53.2463 110.893 59.1793 107.218C65.1648 103.49 69.7852 98.3444 73.0404 91.7813C76.2957 85.2183 77.9233 77.6052 77.9233 68.942V58.2311C77.9233 51.6155 76.9783 45.63 75.0881 40.2746C73.2505 34.9191 70.599 30.3513 67.1337 26.571C63.6684 22.7381 59.5206 19.7979 54.6902 17.7502C49.9123 15.7026 44.5568 14.6787 38.6238 14.6787H11.4529V6.33054H38.6238C45.7644 6.33054 52.3012 7.56439 58.2342 10.0321C64.2197 12.4473 69.3914 15.9651 73.7492 20.5855C78.1596 25.1533 81.5461 30.64 83.9088 37.0456C86.324 43.4511 87.5316 50.5917 87.5316 58.4673V68.942C87.5316 76.8176 86.324 83.9582 83.9088 90.3637C81.5461 96.7693 78.1596 102.256 73.7492 106.824C69.3389 111.392 64.1147 114.909 58.0767 117.377C52.0387 119.792 45.3181 121 37.915 121ZM16.257 6.33054V121H6.56995V6.33054H16.257ZM119.428 49.8829V121H110.056V35.7855H119.192L119.428 49.8829ZM149.592 35.1554L149.355 43.8186C148.305 43.6611 147.282 43.5299 146.284 43.4249C145.286 43.3198 144.21 43.2673 143.055 43.2673C138.96 43.2673 135.363 44.0287 132.265 45.5513C129.22 47.0214 126.647 49.0953 124.547 51.773C122.447 54.3983 120.846 57.496 119.743 61.0663C118.64 64.5841 118.01 68.3644 117.853 72.4072L114.388 73.7461C114.388 68.1806 114.965 63.009 116.12 58.2311C117.275 53.4532 119.034 49.2791 121.397 45.7088C123.812 42.086 126.831 39.277 130.454 37.2818C134.129 35.2342 138.435 34.2103 143.37 34.2103C144.578 34.2103 145.759 34.3153 146.914 34.5254C148.122 34.6829 149.014 34.8929 149.592 35.1554ZM174.873 35.7855V121H165.501V35.7855H174.873ZM163.847 11.1347C163.847 9.34954 164.398 7.85317 165.501 6.64557C166.656 5.38546 168.231 4.75541 170.226 4.75541C172.221 4.75541 173.796 5.38546 174.951 6.64557C176.159 7.85317 176.763 9.34954 176.763 11.1347C176.763 12.8673 176.159 14.3637 174.951 15.6238C173.796 16.8314 172.221 17.4352 170.226 17.4352C168.231 17.4352 166.656 16.8314 165.501 15.6238C164.398 14.3637 163.847 12.8673 163.847 11.1347Z" fill="#BC5D1D"/>
<path d="M233.546 122.575C227.981 122.575 222.862 121.551 218.189 119.504C213.568 117.456 209.525 114.568 206.06 110.84C202.647 107.113 199.996 102.702 198.106 97.6093C196.268 92.4639 195.349 86.8459 195.349 80.7554V77.3689C195.349 70.8059 196.321 64.8729 198.263 59.5699C200.206 54.267 202.884 49.7254 206.296 45.9451C209.709 42.1647 213.595 39.277 217.952 37.2818C222.363 35.2342 226.983 34.2103 231.814 34.2103C237.221 34.2103 242.026 35.1817 246.226 37.1243C250.426 39.0145 253.944 41.7185 256.779 45.2363C259.667 48.7015 261.846 52.8231 263.316 57.601C264.786 62.3264 265.521 67.5506 265.521 73.2736V79.0228H201.02V70.9896H256.149V69.887C256.044 65.1091 255.073 60.6463 253.235 56.4984C251.45 52.2981 248.772 48.8853 245.202 46.2601C241.632 43.6349 237.169 42.3223 231.814 42.3223C227.823 42.3223 224.148 43.1623 220.788 44.8425C217.48 46.5226 214.618 48.9378 212.203 52.0881C209.84 55.1858 208.003 58.8874 206.69 63.1927C205.43 67.4456 204.8 72.171 204.8 77.3689V80.7554C204.8 85.4808 205.483 89.8912 206.848 93.9865C208.265 98.0294 210.26 101.6 212.833 104.697C215.458 107.795 218.556 110.21 222.126 111.943C225.697 113.676 229.635 114.542 233.94 114.542C238.98 114.542 243.443 113.623 247.329 111.785C251.214 109.895 254.705 106.929 257.803 102.886L263.71 107.454C261.872 110.184 259.562 112.704 256.779 115.015C254.049 117.325 250.768 119.162 246.935 120.527C243.102 121.893 238.639 122.575 233.546 122.575ZM339.474 104.461V0.0300217H348.924V121H340.104L339.474 104.461ZM280.328 79.2591V77.6052C280.328 70.9896 281.089 65.0304 282.611 59.7274C284.134 54.372 286.313 49.8041 289.148 46.0238C292.036 42.191 295.501 39.277 299.544 37.2818C303.587 35.2342 308.155 34.2103 313.248 34.2103C318.236 34.2103 322.646 35.0242 326.479 36.6518C330.312 38.2794 333.593 40.6159 336.323 43.6611C339.106 46.7064 341.338 50.3292 343.018 54.5295C344.75 58.7299 346.01 63.4027 346.798 68.5482V89.5762C346.168 94.4066 345.013 98.8432 343.333 102.886C341.653 106.876 339.421 110.368 336.638 113.361C333.856 116.301 330.495 118.585 326.558 120.212C322.672 121.788 318.183 122.575 313.09 122.575C308.05 122.575 303.508 121.525 299.465 119.425C295.423 117.325 291.983 114.358 289.148 110.525C286.313 106.64 284.134 102.046 282.611 96.743C281.089 91.4401 280.328 85.6121 280.328 79.2591ZM289.778 77.6052V79.2591C289.778 84.247 290.277 88.8673 291.275 93.1202C292.272 97.3731 293.795 101.075 295.843 104.225C297.89 107.375 300.489 109.843 303.639 111.628C306.79 113.413 310.518 114.306 314.823 114.306C320.231 114.306 324.772 113.282 328.448 111.234C332.123 109.134 335.063 106.378 337.268 102.965C339.474 99.4995 341.075 95.7192 342.073 91.6238V67.1306C341.443 64.3478 340.524 61.5126 339.316 58.6249C338.109 55.7371 336.455 53.0856 334.354 50.6704C332.307 48.2027 329.682 46.2338 326.479 44.7637C323.329 43.2411 319.496 42.4798 314.98 42.4798C310.623 42.4798 306.868 43.3723 303.718 45.1575C300.568 46.9426 297.943 49.4366 295.843 52.6394C293.795 55.7896 292.272 59.4912 291.275 63.744C290.277 67.9969 289.778 72.6173 289.778 77.6052ZM28.3855 166.331V281H0.741971V166.331H28.3855ZM72.9617 214.057V235.321H20.5099V214.057H72.9617ZM77.4508 166.331V187.674H20.5099V166.331H77.4508ZM117.257 216.892V281H90.7165V195.785H115.525L117.257 216.892ZM142.46 195.155L141.987 219.806C140.937 219.701 139.519 219.57 137.734 219.412C135.949 219.255 134.453 219.176 133.245 219.176C130.147 219.176 127.47 219.544 125.212 220.279C123.007 220.961 121.169 222.011 119.699 223.429C118.281 224.794 117.231 226.527 116.549 228.627C115.919 230.727 115.63 233.169 115.682 235.951L110.878 232.801C110.878 227.078 111.43 221.88 112.532 217.207C113.687 212.482 115.315 208.413 117.415 205C119.515 201.535 122.062 198.883 125.054 197.046C128.047 195.155 131.407 194.21 135.135 194.21C136.448 194.21 137.734 194.289 138.994 194.447C140.307 194.604 141.462 194.84 142.46 195.155ZM206.208 260.287V195.785H232.828V281H207.941L206.208 260.287ZM208.728 242.961L215.659 242.803C215.659 248.526 214.976 253.829 213.611 258.712C212.246 263.542 210.225 267.743 207.547 271.313C204.922 274.883 201.667 277.666 197.781 279.661C193.948 281.604 189.512 282.575 184.471 282.575C180.271 282.575 176.412 281.998 172.894 280.842C169.429 279.635 166.436 277.771 163.916 275.251C161.396 272.678 159.427 269.397 158.009 265.406C156.644 261.363 155.962 256.533 155.962 250.915V195.785H182.503V251.073C182.503 252.963 182.739 254.59 183.211 255.955C183.684 257.321 184.366 258.476 185.259 259.421C186.152 260.313 187.254 260.996 188.567 261.468C189.932 261.888 191.481 262.098 193.213 262.098C197.204 262.098 200.328 261.258 202.585 259.578C204.843 257.898 206.418 255.614 207.311 252.726C208.256 249.839 208.728 246.583 208.728 242.961ZM280.353 195.785V281H253.733V195.785H280.353ZM252.158 173.812C252.158 170.032 253.523 166.934 256.253 164.519C258.983 162.104 262.528 160.896 266.885 160.896C271.243 160.896 274.787 162.104 277.518 164.519C280.248 166.934 281.613 170.032 281.613 173.812C281.613 177.593 280.248 180.69 277.518 183.106C274.787 185.521 271.243 186.728 266.885 186.728C262.528 186.728 258.983 185.521 256.253 183.106C253.523 180.69 252.158 177.593 252.158 173.812ZM346.464 195.785V214.214H295.115V195.785H346.464ZM305.904 174.6H332.445V253.199C332.445 255.457 332.708 257.216 333.233 258.476C333.758 259.683 334.651 260.55 335.911 261.075C337.223 261.547 338.956 261.783 341.109 261.783C342.631 261.783 343.891 261.757 344.889 261.705C345.887 261.6 346.832 261.468 347.724 261.311V280.291C345.466 281.026 343.104 281.578 340.636 281.945C338.168 282.365 335.543 282.575 332.76 282.575C327.09 282.575 322.233 281.683 318.19 279.897C314.2 278.112 311.155 275.303 309.055 271.47C306.955 267.638 305.904 262.65 305.904 256.507V174.6ZM406.511 257.058C406.511 255.588 406.012 254.328 405.015 253.278C404.07 252.175 402.39 251.178 399.974 250.285C397.559 249.34 394.173 248.395 389.815 247.45C385.667 246.557 381.755 245.376 378.08 243.906C374.457 242.436 371.281 240.65 368.551 238.55C365.82 236.45 363.668 233.956 362.093 231.068C360.57 228.181 359.809 224.873 359.809 221.145C359.809 217.522 360.57 214.109 362.093 210.907C363.668 207.651 365.952 204.79 368.944 202.322C371.99 199.802 375.691 197.833 380.049 196.416C384.407 194.945 389.369 194.21 394.934 194.21C402.6 194.21 409.215 195.392 414.781 197.754C420.346 200.065 424.625 203.32 427.618 207.52C430.663 211.668 432.186 216.472 432.186 221.933H405.645C405.645 219.78 405.277 217.942 404.542 216.42C403.86 214.897 402.731 213.742 401.156 212.954C399.581 212.114 397.48 211.694 394.855 211.694C393.018 211.694 391.337 212.036 389.815 212.718C388.345 213.401 387.163 214.346 386.271 215.553C385.378 216.761 384.932 218.179 384.932 219.806C384.932 220.961 385.194 222.011 385.719 222.956C386.297 223.849 387.163 224.689 388.318 225.477C389.474 226.212 390.944 226.894 392.729 227.524C394.514 228.102 396.667 228.627 399.187 229.099C404.91 230.15 410.265 231.646 415.253 233.589C420.241 235.531 424.284 238.288 427.382 241.858C430.532 245.428 432.107 250.232 432.107 256.27C432.107 260.051 431.241 263.542 429.508 266.745C427.775 269.895 425.281 272.678 422.026 275.093C418.771 277.456 414.859 279.294 410.292 280.606C405.724 281.919 400.578 282.575 394.855 282.575C386.717 282.575 379.839 281.131 374.221 278.244C368.603 275.303 364.35 271.628 361.462 267.218C358.627 262.755 357.21 258.239 357.21 253.671H381.939C382.044 256.297 382.674 258.449 383.829 260.13C385.037 261.81 386.638 263.044 388.633 263.831C390.629 264.619 392.939 265.012 395.564 265.012C397.979 265.012 399.974 264.671 401.55 263.989C403.177 263.306 404.411 262.387 405.251 261.232C406.091 260.025 406.511 258.633 406.511 257.058Z" fill="#232323"/>
</svg>
