<svg width="1126" height="404" viewBox="0 0 1126 404" fill="none" xmlns="http://www.w3.org/2000/svg">
<path d="M369.39 171.012C369.74 169.257 369.974 167.853 370.091 166.8C370.208 165.63 369.798 164.401 368.863 163.114C369.331 161.242 369.682 159.78 369.915 158.727C370.266 157.674 370.325 156.211 370.091 154.339C371.143 151.297 372.72 148.723 374.824 146.617C377.045 144.511 379.441 142.756 382.013 141.352C384.584 139.831 387.272 138.602 390.077 137.666C392.882 136.613 395.512 135.735 397.967 135.034C397.967 134.566 397.733 134.331 397.265 134.331C396.798 134.331 396.681 134.039 396.915 133.454C403.226 132.284 409.538 130.588 415.849 128.364C422.278 126.141 428.823 124.152 435.485 122.398C442.147 120.642 448.985 119.589 455.998 119.238C463.011 118.77 470.374 119.648 478.088 121.871C478.556 123.275 479.198 124.62 480.016 125.907C480.835 127.195 481.653 128.481 482.471 129.769C483.406 130.938 484.224 132.109 484.925 133.278C485.627 134.449 486.036 135.677 486.153 136.964C487.555 138.251 488.666 139.655 489.484 141.176C490.419 142.58 490.594 144.511 490.01 146.968C488.724 147.904 487.38 148.84 485.977 149.776C484.575 150.712 483.114 151.589 481.595 152.409C476.335 151.121 471.075 150.653 465.816 151.005C460.556 151.356 455.822 151.765 451.615 152.233C450.329 150.829 448.809 150.185 447.056 150.302C445.303 150.302 443.433 150.595 441.446 151.18C439.576 151.648 437.706 152.174 435.836 152.759C433.966 153.227 432.212 153.345 430.576 153.11C429.29 154.281 427.596 155.099 425.492 155.567C423.388 155.918 421.168 156.211 418.83 156.445C418.713 157.03 418.83 157.439 419.181 157.674C419.531 157.907 419.589 158.375 419.356 159.078C420.174 160.131 421.284 160.891 422.687 161.359C424.09 161.71 425.492 162.061 426.895 162.412C428.414 162.763 429.758 163.289 430.927 163.992C432.096 164.577 432.856 165.571 433.206 166.975C435.31 167.092 437.121 167.677 438.641 168.73C440.16 169.666 441.446 170.836 442.498 172.241C443.55 173.645 444.31 175.166 444.777 176.803C445.245 178.324 445.42 179.728 445.303 181.016C445.771 182.185 446.238 182.653 446.706 182.42C447.29 182.185 447.933 182.478 448.634 183.297C449.102 185.052 450.154 186.924 451.79 188.913C453.543 190.785 454.887 192.832 455.822 195.056C456.056 198.566 456.232 201.725 456.348 204.533C456.582 207.341 456.115 210.091 454.946 212.781C452.959 217.93 450.095 222.552 446.355 226.646C442.615 230.742 438.349 234.368 433.557 237.528C428.882 240.57 423.914 243.261 418.654 245.6C413.395 247.824 408.194 249.696 403.051 251.217C402.584 251.1 401.999 251.1 401.298 251.217C400.713 251.334 400.597 250.982 400.947 250.164C399.895 251.1 398.668 251.685 397.265 251.918C395.98 252.153 394.519 252.211 392.882 252.095C391.363 252.095 389.785 252.036 388.149 251.918C386.629 251.802 385.11 251.86 383.59 252.095C382.655 251.158 381.779 250.222 380.961 249.286C380.259 248.35 379.675 247.239 379.208 245.952C378.623 245.835 378.331 245.484 378.331 244.899C378.448 244.196 378.214 243.846 377.629 243.846C377.629 243.378 377.688 243.027 377.804 242.793C377.922 242.559 378.039 242.325 378.156 242.091C378.623 241.739 378.798 241.506 378.681 241.389C378.681 241.154 378.506 240.979 378.156 240.862C377.922 240.628 377.629 240.394 377.279 240.16C377.045 239.926 376.987 239.634 377.104 239.282C377.688 238.229 377.863 237.001 377.629 235.597C377.512 234.076 377.396 232.555 377.279 231.034C377.162 229.513 377.279 228.109 377.629 226.822C377.98 225.418 378.974 224.248 380.61 223.311C385.402 223.78 389.902 223.546 394.109 222.61C398.434 221.674 402.467 220.386 406.207 218.749C410.064 217.11 413.687 215.356 417.077 213.484C420.583 211.495 423.973 209.681 427.245 208.043C427.596 206.873 428.122 205.878 428.823 205.06C429.641 204.241 430.459 203.48 431.277 202.778C432.096 201.959 432.856 201.14 433.557 200.321C434.258 199.385 434.784 198.273 435.134 196.986C435.251 196.518 435.251 196.167 435.134 195.934C435.018 195.699 434.842 195.524 434.609 195.407C434.375 195.173 434.141 194.939 433.907 194.705C433.674 194.471 433.557 194.12 433.557 193.652C433.206 193.535 432.856 193.418 432.505 193.3C432.271 193.184 432.037 193.125 431.804 193.125C428.765 191.604 425.55 190.317 422.161 189.264C418.771 188.211 415.908 187.041 413.57 185.754C412.168 186.69 410.765 186.924 409.363 186.456C407.96 185.988 406.265 185.52 404.278 185.052C399.369 184.818 394.694 184.35 390.252 183.648C385.928 182.946 381.72 181.717 377.629 179.963C377.396 179.26 377.104 178.675 376.753 178.207C376.402 177.623 375.584 177.447 374.299 177.681C373.48 176.511 372.604 175.458 371.668 174.522C370.85 173.469 370.091 172.299 369.39 171.012ZM479.813 252.27C478.177 251.217 476.891 249.871 475.956 248.233C474.904 246.595 474.086 244.84 473.502 242.968C472.801 241.096 472.274 239.166 471.924 237.177C471.456 235.071 470.989 233.081 470.521 231.21C470.521 229.571 470.872 228.402 471.573 227.699C472.274 226.881 473.034 226.12 473.852 225.418C476.658 225.3 479.17 225.067 481.391 224.716C483.612 224.365 485.774 224.014 487.878 223.663C489.982 223.311 492.086 223.02 494.19 222.785C496.293 222.434 498.572 222.259 501.027 222.259C502.78 218.632 504.416 215.18 505.936 211.904C507.455 208.511 508.917 205.293 510.319 202.252C511.02 199.327 511.897 196.635 512.949 194.178C514.117 191.604 515.228 189.206 516.28 186.982C517.332 184.642 518.267 182.361 519.085 180.138C519.903 177.798 520.429 175.341 520.663 172.767C522.065 168.671 523.293 164.928 524.345 161.535C525.514 158.024 526.39 153.871 526.974 149.074C522.533 149.776 518.968 150.478 516.28 151.18C513.592 151.765 511.663 152.35 510.494 152.935C508.157 152.818 506.286 152.35 504.884 151.531C503.598 150.712 502.546 149.717 501.728 148.548C500.91 147.377 500.209 146.032 499.624 144.511C499.04 142.989 498.339 141.41 497.52 139.773C497.988 138.719 498.105 137.198 497.871 135.209C497.637 133.103 496.936 131.582 495.767 130.646C496.702 130.412 497.404 129.652 497.871 128.364C498.339 126.96 498.397 125.907 498.047 125.206C500.034 124.62 502.137 124.27 504.358 124.152C506.579 123.919 508.741 123.743 510.845 123.626C513.066 123.392 515.169 123.158 517.156 122.924C519.143 122.573 520.838 121.93 522.241 120.993C528.319 120.759 534.63 120.525 541.175 120.291C547.838 120.057 553.974 119.765 559.584 119.414C561.688 120.116 564.084 120.467 566.772 120.467C569.577 120.467 572.324 120.642 575.013 120.993C577.817 121.345 580.272 122.105 582.375 123.275C584.596 124.445 586.116 126.492 586.934 129.417C588.687 129.652 589.973 130.12 590.791 130.821C591.726 131.524 592.31 132.401 592.545 133.454C592.778 134.39 592.837 135.502 592.72 136.789C592.72 137.959 592.72 139.128 592.72 140.299C590.85 141.703 588.453 142.873 585.531 143.809C582.726 144.628 579.629 145.33 576.24 145.914C572.85 146.383 569.285 146.734 565.545 146.968C561.921 147.085 558.357 147.202 554.85 147.319C554.266 151.18 553.214 155.743 551.695 161.008C550.292 166.156 548.831 171.246 547.311 176.277C545.792 181.191 544.448 185.637 543.279 189.615C542.227 193.476 541.76 195.992 541.877 197.162C540.708 199.853 539.714 202.134 538.896 204.006C538.195 205.878 537.493 207.634 536.792 209.271C536.208 210.91 535.565 212.548 534.864 214.185C534.28 215.707 533.52 217.461 532.585 219.45H544.506C544.74 220.738 545.266 221.615 546.084 222.084C546.903 222.552 547.779 222.961 548.714 223.311C549.649 223.663 550.467 224.131 551.168 224.716C551.987 225.184 552.396 226.003 552.396 227.173C554.617 227.758 556.019 228.635 556.604 229.806C557.188 230.975 557.305 232.263 556.954 233.667C556.721 234.953 556.136 236.299 555.201 237.703C554.383 239.107 553.565 240.335 552.747 241.389C551.695 241.154 550.701 241.447 549.766 242.266C548.831 242.968 547.955 243.787 547.136 244.723C543.747 244.255 540.415 244.196 537.143 244.548C533.87 244.899 530.831 245.191 528.026 245.425C527.442 245.542 527.208 245.893 527.325 246.478C527.442 246.946 527.325 247.297 526.974 247.531C523.351 246.361 519.611 245.893 515.754 246.127C512.014 246.361 508.157 246.946 504.183 247.882C500.326 248.701 496.352 249.579 492.261 250.515C488.17 251.568 484.021 252.153 479.813 252.27ZM607.418 233.667C606.25 234.603 605.548 235.831 605.315 237.352C605.081 238.756 604.788 240.16 604.438 241.564C604.087 242.968 603.445 244.196 602.51 245.25C601.691 246.186 600.172 246.595 597.951 246.478C597.484 247.063 597.367 247.414 597.601 247.531C597.951 247.648 598.243 248.175 598.477 249.111C596.841 248.877 595.672 248.993 594.971 249.461C594.269 249.929 593.393 250.281 592.341 250.515C589.653 249.696 587.373 248.233 585.503 246.127C583.75 243.904 582.172 241.506 580.77 238.932C579.484 236.357 578.315 233.725 577.263 231.034C576.328 228.343 575.335 226.003 574.283 224.014C574.283 223.546 574.516 223.37 574.984 223.488C575.335 223.488 575.685 223.488 576.036 223.488C575.452 222.317 575.043 221.03 574.809 219.626C574.458 218.105 573.874 216.877 573.056 215.941C576.445 208.686 580.069 201.14 583.926 193.3C587.783 185.345 591.64 177.33 595.497 169.257C599.471 161.067 603.386 152.877 607.243 144.686C611.217 136.379 615.016 128.248 618.639 120.291C621.912 121.462 625.067 122.866 628.106 124.503C631.262 126.024 634.125 127.838 636.697 129.944C639.268 132.05 641.431 134.507 643.184 137.315C645.054 140.006 646.281 143.107 646.865 146.617C646.632 147.319 646.34 147.553 645.989 147.319C645.638 147.085 645.346 147.202 645.112 147.67C645.697 148.372 645.989 148.898 645.989 149.249C646.106 149.484 646.106 149.776 645.989 150.127C645.872 150.361 645.813 150.712 645.813 151.18C645.813 151.648 646.106 152.292 646.69 153.11C646.106 152.993 645.697 153.11 645.463 153.462C645.229 153.695 644.82 153.695 644.236 153.462C644.82 155.099 644.995 156.387 644.761 157.323C644.528 158.259 644.177 159.136 643.71 159.955C643.243 160.657 642.833 161.476 642.483 162.412C642.249 163.231 642.366 164.401 642.833 165.922C642.366 165.922 642.015 166.039 641.781 166.273C641.664 166.391 641.548 166.566 641.431 166.8C641.314 167.034 641.138 167.268 640.904 167.502C640.788 167.619 640.496 167.619 640.028 167.502C640.379 170.544 640.496 173.645 640.379 176.803C640.262 179.845 640.145 183.005 640.028 186.281C639.911 189.439 639.911 192.716 640.028 196.109C640.145 199.502 640.612 203.012 641.431 206.639C646.456 203.714 650.489 199.911 653.527 195.231C656.683 190.551 659.138 185.345 660.891 179.611C662.762 173.878 664.164 167.736 665.099 161.184C666.151 154.631 667.202 147.963 668.254 141.176C669.54 139.889 670.534 138.31 671.235 136.438C672.053 134.566 672.696 132.635 673.163 130.646C673.748 128.657 674.274 126.668 674.741 124.679C675.326 122.573 676.085 120.701 677.02 119.063C679.124 119.296 680.877 119.941 682.281 120.993C683.799 121.93 685.202 123.041 686.488 124.328C687.773 125.498 689.118 126.609 690.52 127.663C691.923 128.716 693.676 129.417 695.78 129.769C697.416 132.109 698.936 134.39 700.338 136.613C701.741 138.719 702.676 141.118 703.143 143.809C702.442 144.979 701.916 146.266 701.565 147.67C701.215 149.074 700.806 150.478 700.338 151.882C699.988 153.286 699.461 154.573 698.76 155.743C698.059 156.913 697.066 157.907 695.78 158.727C695.429 162.237 694.903 165.513 694.202 168.555C693.501 171.597 692.858 174.581 692.274 177.506C691.689 180.431 691.163 183.473 690.695 186.632C690.228 189.791 690.053 193.242 690.17 196.986C689.118 200.379 687.949 203.889 686.663 207.517C685.378 211.027 684.443 214.303 683.858 217.345C681.637 219.1 679.884 221.264 678.599 223.838C677.313 226.413 675.968 228.986 674.566 231.56C673.982 232.028 673.631 232.145 673.514 231.911C673.397 231.56 672.871 231.327 671.936 231.21C672.053 232.263 671.819 232.964 671.235 233.315C670.768 233.549 670.826 234.368 671.41 235.772C669.423 236.709 667.67 237.937 666.151 239.458C664.631 240.979 662.937 242.383 661.067 243.67C659.313 244.957 657.209 245.835 654.755 246.303C652.417 246.654 649.32 246.127 645.463 244.723C639.736 240.511 634.593 235.656 630.035 230.156C625.476 224.657 621.853 218.164 619.165 210.675C617.996 211.027 617.12 211.787 616.535 212.957C615.951 214.127 615.425 215.356 614.958 216.643C614.489 217.93 614.022 219.1 613.554 220.153C613.087 221.206 612.386 221.732 611.451 221.732C611.217 222.785 610.749 223.78 610.048 224.716C609.464 225.535 608.879 226.413 608.295 227.349C607.71 228.167 607.243 229.103 606.892 230.156C606.659 231.21 606.834 232.379 607.418 233.667ZM717.492 163.289C717.258 161.769 716.965 160.832 716.615 160.481C717.433 158.375 718.017 156.328 718.371 154.339C718.837 152.233 719.189 150.244 719.419 148.372C719.656 146.734 719.886 145.213 720.123 143.809C720.475 142.405 720.884 141.059 721.351 139.773C723.333 139.305 724.798 138.485 725.731 137.315C726.787 136.028 727.598 134.917 728.187 133.981C730.291 133.863 731.634 134.156 732.216 134.858C732.92 135.56 733.681 136.73 734.499 138.368C735.081 139.655 735.9 141.059 736.955 142.58C738.004 143.984 739.584 145.096 741.688 145.914C742.04 147.202 742.449 148.43 742.916 149.6C743.383 150.77 743.907 151.999 744.488 153.286C745.544 155.743 746.535 158.317 747.469 161.008C748.409 163.582 748.934 166.039 749.048 168.379C747.648 171.07 746.535 174.171 745.716 177.681C745.02 181.191 744.546 184.76 744.316 188.386C744.201 191.896 744.316 195.289 744.668 198.566C745.02 201.842 745.602 204.592 746.42 206.814L747.469 209.623L751.325 209.271C755.533 208.218 759.332 207.049 762.721 205.761C766.111 204.357 769.271 202.72 772.193 200.847C775.116 198.975 777.917 196.87 780.609 194.529C783.295 192.072 786.103 189.206 789.026 185.93C791.826 182.653 794.34 178.968 796.559 174.873C798.785 170.661 800.595 166.332 801.995 161.885C803.517 157.439 804.688 152.993 805.499 148.548C806.318 144.102 806.849 139.948 807.079 136.087C809.298 135.034 810.526 133.337 810.763 130.997L810.239 128.716C809.887 128.131 809.707 127.604 809.707 127.136C809.829 126.551 810.002 126.024 810.239 125.556C811.172 122.866 813.161 120.877 816.199 119.589C818.303 120.993 820.228 122.514 821.98 124.152C823.854 125.791 825.549 127.428 827.064 129.067C827.301 132.226 827.768 134.975 828.472 137.315C829.168 139.538 829.929 141.703 830.748 143.809C831.567 145.798 832.27 147.728 832.852 149.6C833.556 151.473 834.023 153.754 834.252 156.445C833.089 159.955 832.213 163.289 831.624 166.449C831.157 169.491 830.691 172.709 830.224 176.102L829.872 178.032C827.768 181.659 825.664 185.403 823.56 189.264C821.571 193.009 819.94 196.284 818.648 199.092C817.951 199.795 817.305 200.613 816.723 201.549C816.257 202.485 815.79 203.421 815.323 204.357C815.086 204.709 814.734 205.293 814.267 206.113C813.916 206.931 813.564 207.517 813.219 207.867L809.011 206.288L807.955 211.728L805.155 212.431L803.05 214.888C800.358 219.568 797.5 223.488 794.455 226.646C791.532 229.806 788.207 232.613 784.466 235.071C780.839 237.528 776.689 239.867 772.014 242.091C767.461 244.196 762.197 246.478 756.237 248.935C753.903 248.584 751.856 248.409 750.104 248.409C748.467 248.292 746.829 248.175 745.192 248.057C743.555 248.057 741.975 247.999 740.46 247.882C738.937 247.765 737.185 247.589 735.196 247.356C734.729 246.303 734.09 245.542 733.271 245.074C732.453 244.606 731.692 244.372 730.988 244.372C728.654 243.202 726.902 241.564 725.731 239.458C724.561 237.352 723.333 235.012 722.047 232.438C721.466 231.034 720.819 229.63 720.123 228.226C719.534 226.822 718.78 225.477 717.842 224.189L721.351 223.136L716.79 217.871C716.44 217.52 716.03 217.169 715.563 216.818C715.212 216.467 714.862 216.057 714.511 215.589V212.255C714.043 202.661 713.81 193.827 713.81 185.754C713.927 177.564 715.037 170.368 717.141 164.167L717.492 163.289ZM839.839 151.18C839.717 150.244 839.487 149.425 839.136 148.723C838.899 147.904 838.611 147.027 838.26 146.091C837.678 144.686 837.146 143.166 836.68 141.527C836.213 139.889 835.983 137.959 835.983 135.735C836.213 134.566 836.507 133.746 836.859 133.278C837.204 132.694 837.556 132.226 837.908 131.874L838.611 128.716H841.24C842.173 128.832 843.107 128.891 844.047 128.891C845.096 128.891 846.087 128.891 847.028 128.891C851.466 128.891 856.026 128.716 860.701 128.364C865.375 128.013 870.165 127.604 875.077 127.136C880.456 126.434 886.237 125.907 892.434 125.556C893.016 124.27 893.367 123.45 893.482 123.099C893.719 122.748 893.949 122.339 894.186 121.871L896.118 120.818C898.804 120.701 900.671 121.052 901.726 121.871C902.775 122.573 903.593 123.275 904.182 123.977C907.22 123.743 910.315 123.45 913.475 123.099C916.627 122.631 919.902 122.163 923.291 121.695C927.966 121.11 932.698 120.525 937.488 119.941C942.285 119.355 946.96 119.063 951.513 119.063C953.502 119.063 955.376 119.121 957.129 119.238C958.881 119.355 960.576 119.531 962.213 119.765L964.317 121.345C964.784 122.163 965.365 122.924 966.069 123.626C966.766 124.328 967.584 125.03 968.525 125.732C970.277 127.136 971.972 128.891 973.609 130.997C975.362 133.103 976.001 136.203 975.534 140.299L974.658 142.053C974.191 142.521 973.609 142.989 972.906 143.457L971.153 145.739H969.222C968.058 145.739 967.175 145.856 966.593 146.091C966.012 146.207 965.308 146.441 964.489 146.792C964.022 147.027 963.498 147.26 962.909 147.495C962.328 147.611 961.681 147.787 960.985 148.021C959.699 147.904 958.701 147.845 958.005 147.845C957.301 147.845 956.482 147.845 955.549 147.845C952.044 147.845 948.246 148.08 944.152 148.548C940.059 149.016 936.088 149.542 932.232 150.127C929.424 150.478 926.738 150.829 924.167 151.18C921.596 151.414 919.255 151.648 917.151 151.882C915.988 154.924 914.932 157.615 913.999 159.955C913.065 162.295 912.067 164.635 911.019 166.975C909.963 169.316 908.972 171.714 908.038 174.171C907.105 176.511 906.222 179.143 905.41 182.068C904.003 184.174 902.832 186.222 901.899 188.211C900.965 190.083 900.204 192.248 899.622 194.705C897.87 196.693 896.585 198.859 895.766 201.199C895.062 203.538 894.423 205.527 893.834 207.166L893.138 209.798C892.319 210.617 891.788 211.26 891.558 211.728C891.443 212.196 891.148 212.723 890.682 213.308C890.33 214.829 889.863 216.292 889.274 217.696C889.044 218.281 888.807 218.924 888.578 219.626C888.341 220.211 888.283 220.679 888.398 221.03C888.168 222.317 887.816 223.311 887.35 224.014C887.35 224.716 887.292 225.418 887.17 226.12C887.055 226.822 886.94 227.524 886.825 228.226C886.588 229.045 886.416 229.806 886.294 230.507C886.179 231.092 886.237 231.677 886.474 232.263C886.825 232.731 887.17 233.199 887.522 233.667C887.874 234.135 888.168 234.72 888.398 235.421C888.635 235.656 888.93 235.831 889.274 235.948C889.626 236.065 889.92 236.241 890.157 236.474C891.091 237.293 891.967 237.761 892.786 237.878L894.538 239.985C895.242 244.196 894.595 247.473 892.606 249.813C890.502 252.504 886.998 253.849 882.086 253.849L879.637 253.674C878.819 252.854 878.352 252.328 878.23 252.095C877.181 251.627 876.305 251.217 875.601 250.866C874.898 250.632 874.258 250.105 873.677 249.286C873.44 249.052 873.145 248.935 872.801 248.935C872.449 248.818 872.154 248.643 871.917 248.409C870.754 248.057 869.813 247.648 869.117 247.18L867.185 246.127C867.307 244.957 867.365 244.138 867.365 243.67C866.424 242.383 865.67 240.979 865.081 239.458C864.614 237.937 864.205 236.357 863.853 234.72C863.508 233.432 863.156 232.263 862.805 231.21C862.568 230.156 862.158 229.22 861.577 228.402C861.34 220.211 862.101 213.367 863.853 207.867C865.612 202.252 867.537 196.811 869.641 191.546C870.812 188.738 871.917 185.871 872.973 182.946C874.022 180.021 874.962 177.038 875.781 173.995L877.705 172.064C878.524 171.363 879.048 170.953 879.285 170.836C879.285 169.316 879.58 167.853 880.161 166.449C880.743 164.928 881.389 163.407 882.086 161.885C882.56 160.949 882.969 160.014 883.314 159.078C883.781 158.142 884.075 157.323 884.19 156.62C883.379 156.62 882.617 156.679 881.914 156.796C881.332 156.796 880.686 156.855 879.989 156.971C878.467 157.323 877.002 157.498 875.601 157.498C874.553 157.498 873.792 157.439 873.325 157.323C872.391 157.791 871.508 158.083 870.697 158.2C869.878 158.2 869.059 158.2 868.241 158.2H866.137H864.033C862.632 158.2 861.519 158.375 860.701 158.727C859.063 158.727 858.015 158.727 857.548 158.727C857.074 158.727 856.55 158.727 855.968 158.727H853.864H851.76C850.826 158.727 849.771 158.668 848.6 158.551C847.437 158.317 846.209 157.849 844.924 157.147L843.696 155.743C842.992 154.456 842.353 153.754 841.764 153.637L839.839 153.11V151.18ZM953.596 171.012C953.94 169.257 954.177 167.853 954.292 166.8C954.407 165.63 953.998 164.401 953.064 163.114C953.531 161.242 953.883 159.78 954.12 158.727C954.472 157.674 954.529 156.211 954.292 154.339C955.348 151.297 956.92 148.723 959.024 146.617C961.251 144.511 963.642 142.756 966.213 141.352C968.784 139.831 971.477 138.602 974.277 137.666C977.085 136.613 979.713 135.735 982.169 135.034C982.169 134.566 981.932 134.331 981.465 134.331C980.999 134.331 980.884 134.039 981.121 133.454C987.426 132.284 993.738 130.588 1000.05 128.364C1006.48 126.141 1013.03 124.152 1019.69 122.398C1026.35 120.642 1033.18 119.589 1040.2 119.238C1047.22 118.77 1054.58 119.648 1062.29 121.871C1062.76 123.275 1063.4 124.62 1064.22 125.907C1065.04 127.195 1065.86 128.481 1066.68 129.769C1067.61 130.938 1068.43 132.109 1069.13 133.278C1069.83 134.449 1070.24 135.677 1070.35 136.964C1071.76 138.251 1072.87 139.655 1073.69 141.176C1074.62 142.58 1074.8 144.511 1074.21 146.968C1072.92 147.904 1071.58 148.84 1070.18 149.776C1068.78 150.712 1067.32 151.589 1065.8 152.409C1060.54 151.121 1055.28 150.653 1050.02 151.005C1044.76 151.356 1040.03 151.765 1035.82 152.233C1034.53 150.829 1033.01 150.185 1031.26 150.302C1029.51 150.302 1027.63 150.595 1025.65 151.18C1023.78 151.648 1021.91 152.174 1020.04 152.759C1018.17 153.227 1016.42 153.345 1014.78 153.11C1013.49 154.281 1011.8 155.099 1009.69 155.567C1007.59 155.918 1005.37 156.211 1003.03 156.445C1002.92 157.03 1003.03 157.439 1003.38 157.674C1003.73 157.907 1003.79 158.375 1003.56 159.078C1004.37 160.131 1005.49 160.891 1006.89 161.359C1008.29 161.71 1009.69 162.061 1011.09 162.412C1012.62 162.763 1013.96 163.289 1015.13 163.992C1016.3 164.577 1017.06 165.571 1017.41 166.975C1019.51 167.092 1021.32 167.677 1022.84 168.73C1024.37 169.666 1025.65 170.836 1026.7 172.241C1027.75 173.645 1028.51 175.166 1028.98 176.803C1029.45 178.324 1029.62 179.728 1029.51 181.016C1029.97 182.185 1030.44 182.653 1030.91 182.42C1031.49 182.185 1032.14 182.478 1032.84 183.297C1033.31 185.052 1034.35 186.924 1035.99 188.913C1037.74 190.785 1039.09 192.832 1040.03 195.056C1040.26 198.566 1040.44 201.725 1040.55 204.533C1040.78 207.341 1040.31 210.091 1039.15 212.781C1037.16 217.93 1034.3 222.552 1030.56 226.646C1026.81 230.742 1022.55 234.368 1017.76 237.528C1013.08 240.57 1008.11 243.261 1002.86 245.6C997.594 247.824 992.395 249.696 987.253 251.217C986.787 251.1 986.205 251.1 985.501 251.217C984.912 251.334 984.797 250.982 985.149 250.164C984.101 251.1 982.873 251.685 981.465 251.918C980.18 252.153 978.722 252.211 977.085 252.095C975.563 252.095 973.99 252.036 972.353 251.918C970.83 251.802 969.315 251.86 967.793 252.095C966.859 251.158 965.983 250.222 965.164 249.286C964.461 248.35 963.879 247.239 963.412 245.952C962.823 245.835 962.536 245.484 962.536 244.899C962.651 244.196 962.414 243.846 961.832 243.846C961.832 243.378 961.89 243.027 962.005 242.793C962.127 242.559 962.242 242.325 962.357 242.091C962.823 241.739 963.003 241.506 962.881 241.389C962.881 241.154 962.708 240.979 962.357 240.862C962.127 240.628 961.832 240.394 961.48 240.16C961.251 239.926 961.186 239.634 961.308 239.282C961.89 238.229 962.069 237.001 961.832 235.597C961.717 234.076 961.595 232.555 961.48 231.034C961.365 229.513 961.48 228.109 961.832 226.822C962.184 225.418 963.175 224.248 964.812 223.311C969.602 223.78 974.105 223.546 978.313 222.61C982.636 221.674 986.672 220.386 990.406 218.749C994.269 217.11 997.889 215.356 1001.28 213.484C1004.78 211.495 1008.17 209.681 1011.45 208.043C1011.8 206.873 1012.32 205.878 1013.03 205.06C1013.85 204.241 1014.66 203.48 1015.48 202.778C1016.3 201.959 1017.06 201.14 1017.76 200.321C1018.46 199.385 1018.99 198.273 1019.34 196.986C1019.45 196.518 1019.45 196.167 1019.34 195.934C1019.22 195.699 1019.04 195.524 1018.81 195.407C1018.58 195.173 1018.34 194.939 1018.11 194.705C1017.87 194.471 1017.76 194.12 1017.76 193.652C1017.41 193.535 1017.06 193.418 1016.71 193.3C1016.47 193.184 1016.24 193.125 1016.01 193.125C1012.97 191.604 1009.75 190.317 1006.36 189.264C1002.97 188.211 1000.11 187.041 997.774 185.754C996.373 186.69 994.966 186.924 993.566 186.456C992.165 185.988 990.471 185.52 988.481 185.052C983.57 184.818 978.895 184.35 974.457 183.648C970.134 182.946 965.926 181.717 961.832 179.963C961.595 179.26 961.308 178.675 960.956 178.207C960.604 177.623 959.786 177.447 958.5 177.681C957.682 176.511 956.805 175.458 955.872 174.522C955.053 173.469 954.292 172.299 953.596 171.012Z" fill="#AF530A"/>
<path d="M88.1762 234.895C84.7867 232.321 81.9818 229.103 79.7607 225.242C77.6573 221.381 75.9626 217.286 74.6764 212.957C73.5081 208.628 72.6894 204.182 72.2219 199.619C71.8715 194.939 71.7546 190.492 71.8715 186.281C72.9235 183.121 74.2089 180.255 75.7285 177.681C77.248 174.99 78.9427 172.474 80.8127 170.134C82.6827 167.677 84.6115 165.396 86.5985 163.289C88.7019 161.067 90.7478 158.843 92.7348 156.62C93.4357 156.62 94.0784 156.796 94.6629 157.147C95.1304 155.86 95.832 154.749 96.767 153.813C97.702 152.877 98.6958 152.057 99.7472 151.356C100.799 150.537 101.851 149.776 102.903 149.074C103.955 148.255 104.831 147.319 105.533 146.266C108.455 145.564 111.027 144.569 113.247 143.282C115.584 141.995 117.806 140.591 119.91 139.07C122.013 137.549 124.175 136.145 126.396 134.858C128.617 133.571 131.188 132.577 134.11 131.874C135.162 130.705 136.448 129.71 137.967 128.891C139.604 128.072 141.182 127.312 142.701 126.609C144.337 125.907 145.856 125.147 147.259 124.328C148.778 123.509 150.006 122.398 150.941 120.993C151.642 121.93 152.635 122.28 153.922 122.046C155.207 121.695 156.376 121.345 157.428 120.993C158.129 120.877 158.714 120.993 159.181 121.345C159.648 121.695 160.058 122.105 160.408 122.573C160.876 122.924 161.226 123.158 161.46 123.275C161.811 123.392 162.161 123.041 162.512 122.222C163.447 122.339 163.681 122.748 163.213 123.45C162.863 124.152 162.629 124.62 162.512 124.855C163.681 124.62 164.616 124.855 165.317 125.556C166.135 126.141 167.362 126.551 168.999 126.785C169.584 127.37 169.759 127.838 169.525 128.189C169.291 128.54 169.116 129.125 168.999 129.944C173.206 131.231 175.895 133.278 177.063 136.087C178.233 138.778 178.35 141.644 177.415 144.686C176.48 147.611 174.726 150.361 172.154 152.935C169.7 155.392 166.954 157.03 163.915 157.849C160.291 158.785 156.902 159.721 153.746 160.657C150.707 161.593 147.726 162.646 144.804 163.816C141.999 164.986 139.312 166.391 136.74 168.028C134.285 169.549 132.123 171.363 130.253 173.469C126.981 174.405 124 175.692 121.312 177.33C118.741 178.968 116.286 180.781 113.949 182.77C111.727 184.76 109.565 186.866 107.462 189.089C105.358 191.195 103.254 193.3 101.15 195.407C101.15 197.396 100.799 198.917 100.098 199.97C99.3967 201.023 98.637 202.076 97.819 203.129C98.0524 205.352 98.5199 207.282 99.2215 208.921C100.039 210.442 100.858 212.021 101.676 213.659C111.027 216.467 120.903 218.222 131.305 218.924C141.824 219.509 152.227 219.86 162.512 219.977C163.564 221.381 164.733 222.727 166.019 224.014C167.421 225.184 168.649 226.413 169.7 227.699C170.869 228.986 171.746 230.507 172.33 232.263C173.031 233.9 173.206 235.889 172.856 238.229C170.869 240.218 168.707 242.149 166.369 244.021C164.032 245.776 161.694 247.531 159.356 249.286C158.304 249.403 157.019 249.403 155.499 249.286C154.097 249.17 152.577 249.111 150.941 249.111C149.422 249.111 147.843 249.228 146.208 249.461C144.688 249.579 143.227 249.929 141.824 250.515C134.461 250.281 126.922 249.403 119.208 247.882C111.494 246.244 104.364 244.314 97.819 242.091C96.5329 240.57 95.1893 239.166 93.7868 237.878C92.3836 236.474 90.5137 235.48 88.1762 234.895Z" fill="#AF530A"/>
<path d="M331.752 102.959C327.778 105.167 319.291 108.373 312.514 110.276C296.445 114.706 284.789 119.903 272.402 128.134C265.949 132.47 254.539 141.533 252.371 144.02C252.3 144.13 253.716 145.246 255.496 146.523L258.783 148.896L260.598 147.428C263.511 145.114 266.84 140.966 268.44 137.796C269.23 136.167 269.941 134.837 270.032 134.817C270.484 134.722 269.582 137.839 268.369 140.596C267.031 143.663 263.928 147.763 261.724 149.408C260.41 150.346 260.467 150.617 262.699 152.695C264.246 154.209 267.266 158.008 269.658 161.515C270.623 162.963 271.09 162.487 272.699 158.467C274.06 155.064 276.35 152.929 281.919 149.771C287.289 146.797 289.179 144.557 296.357 132.895C305.086 118.734 307.183 115.46 305.889 118.282C303.67 122.998 296.526 136.163 293.396 141.261C289.946 146.85 287.756 149.011 282.575 151.992C278.277 154.457 276.814 155.805 275.533 158.246C274.939 159.456 273.925 161.37 273.265 162.5L272.144 164.577L274.136 166.186C277.499 168.922 284.05 173.344 285.716 174.078L287.282 174.786L289.386 171.321C291.908 167.155 295.945 158.515 299.364 149.865C302.316 142.351 302.475 141.987 301.559 145.484C299.403 153.632 293.862 167.686 290.858 172.709L288.826 176.064L293.355 178.507L297.938 180.985L298.84 179.661C300.19 177.772 303.754 170.932 305.463 166.937C307.491 162.214 308.946 156.338 309.217 151.797C309.603 144.211 312.499 134.868 318.955 120.007C323.437 109.67 323.247 110.559 317.875 125.191C313.843 136.095 311.84 144.069 311.289 151.548C311.032 154.812 310.492 158.748 310.064 160.302C308.964 164.498 305.946 171.696 303.038 177.171C300.672 181.635 300.558 181.989 301.434 182.56C302.847 183.441 311.429 186.963 311.926 186.858C312.153 186.811 314.542 183.805 317.215 180.126C320.477 175.661 322.376 172.57 323.045 170.589C324.639 166.051 325.675 159.084 326.444 148.161C327.244 136.712 328.037 129.041 328.365 129.254C328.52 129.316 328.508 129.932 328.451 130.557C328.348 131.193 328.148 136.521 328.017 142.401C327.645 160.367 326.51 169.102 323.816 174.248C323.176 175.469 320.738 179.146 318.397 182.377L314.08 188.339L317.161 190.189L320.244 192.04L321.036 190.646L321.874 189.242L321.464 190.886L321.055 192.53L323.996 194.835C325.586 196.105 327.083 197.157 327.283 197.21C328.599 197.404 332.452 182.29 333.509 172.958C334.796 161.359 334.502 151.888 332.384 135.108C330.828 122.787 330.909 119.136 332.83 111.887C334.018 107.437 334.296 101.809 333.375 102.144C333.149 102.192 332.473 102.571 331.752 102.959ZM287.873 128.267C287.152 130.449 281.471 138.68 277.414 143.406C275.56 145.591 272.568 149.102 270.76 151.277C268.896 153.417 267.39 155.009 267.342 154.783C267.19 154.06 273.339 145.588 279.794 137.666C283.392 133.224 286.747 128.977 287.192 128.174C288.316 126.333 288.507 126.34 287.873 128.267ZM324.531 128.317C322.318 138.884 321.58 143.005 320.749 149.599C320.32 152.946 319.909 155.251 319.759 154.763C319.435 153.227 320.009 145.413 320.83 140.567C321.606 135.731 325.419 121.097 325.792 121.302C325.912 121.419 325.345 124.559 324.531 128.317Z" fill="#AF530A"/>
<path d="M240.046 144.746C230.27 151.345 216.752 173.049 212.794 188.483C207.525 208.871 211.232 234.97 221.22 248.169C223.898 251.714 226.649 253.591 229.372 253.772C232.611 253.938 235.496 254.888 242.04 257.995C251.046 262.284 256.185 263.42 264.905 262.996C272.84 262.644 287.004 258.993 296.589 254.844C316.02 246.444 327.783 230.496 330.89 208.344L331.292 205.33L329.935 203.585C326.378 198.997 314.562 190.766 307.079 187.669C294.782 182.517 278.404 172.981 271.368 166.86C270.044 165.722 268.039 163.358 266.882 161.665C260.892 152.913 252.972 146.175 245.94 143.88C242.955 142.904 242.685 142.961 240.046 144.746ZM270.252 174.087C275.834 178.673 283.592 183.745 288.971 186.247C291.271 187.321 296.256 189.292 300.112 190.604C308.343 193.449 314.514 196.352 318.514 199.24C323.006 202.449 323.277 203.29 319.019 200.74C314.541 198.047 308.974 195.773 300.865 193.28C297.699 192.341 293.215 190.737 290.935 189.753C285.713 187.549 276.862 181.763 272.578 177.754C269.3 174.713 265.313 170.547 265.629 170.481C265.719 170.461 267.807 172.1 270.252 174.087ZM222.624 182.817C221.58 186.581 220.584 195.721 220.531 201.732C220.346 216.511 223.242 231.821 227.805 240.07C230.516 244.884 233.473 246.623 242.135 248.385C245.08 248.945 249.017 250.192 250.899 251.07C255.023 252.987 257.814 253.485 264.189 253.557C270.744 253.591 286.289 250.451 292.337 247.852C297.521 245.623 303.758 242.134 307.588 239.294C314.11 234.469 321.421 225.791 325.408 218.1C326.878 215.239 326.397 216.757 324.664 220.383C322.586 224.837 317.465 232.06 313.807 235.714C303.037 246.538 287.526 253.639 270.835 255.366C261.299 256.387 254.855 255.763 250.155 253.353C248.99 252.749 244.754 251.422 240.729 250.43C234.51 248.86 233.03 248.322 230.633 246.56C226.086 243.315 223.625 238.118 221.234 226.765C218.271 212.697 218.456 197.02 221.764 184.322C222.356 182.213 222.879 180.449 223.015 180.42C223.15 180.392 222.954 181.472 222.624 182.817ZM317.133 221.311C310.757 231.302 300.423 239.719 289.025 244.204C283.28 246.456 273.841 248.165 268.558 247.91L264.985 247.719L267.748 247.419C273.294 246.91 285.677 243.966 289.375 242.288C299.759 237.686 310.5 229.183 317.168 220.358C319.334 217.445 319.32 217.826 317.133 221.311Z" fill="#AF530A"/>
<path d="M256.53 319.298C256.502 321.601 256.474 323.833 256.446 325.995C256.446 326.922 256.432 327.876 256.404 328.86C256.404 329.814 256.39 330.769 256.362 331.724C256.362 332.678 256.362 333.591 256.362 334.462C256.362 335.304 256.362 336.062 256.362 336.736C256.362 338.14 256.362 339.839 256.362 341.833C256.39 343.798 256.418 345.82 256.446 347.898C256.474 349.976 256.516 351.984 256.573 353.921C256.629 355.831 256.698 357.431 256.782 358.723C257.063 358.779 257.428 358.835 257.877 358.892C258.326 358.92 258.788 358.962 259.266 359.018C259.77 359.046 260.261 359.074 260.738 359.102C261.215 359.102 261.622 359.102 261.958 359.102C263.501 359.102 265.058 359.004 266.628 358.807C268.228 358.61 269.756 358.246 271.215 357.712C272.701 357.15 274.09 356.392 275.381 355.437C276.671 354.483 277.793 353.261 278.747 351.773C279.729 350.257 280.486 348.446 281.019 346.339C281.58 344.205 281.86 341.692 281.86 338.8C281.86 332.426 280.331 327.512 277.274 324.058C274.245 320.604 269.714 318.877 263.683 318.877C263.095 318.877 262.463 318.89 261.79 318.919C261.145 318.947 260.499 318.989 259.854 319.045C259.209 319.073 258.592 319.115 258.003 319.172C257.442 319.228 256.951 319.27 256.53 319.298ZM247.82 316.223C248.494 316.252 249.124 316.265 249.714 316.265C250.219 316.293 250.709 316.308 251.187 316.308C251.664 316.308 252.014 316.308 252.238 316.308C252.631 316.308 253.333 316.293 254.342 316.265C255.352 316.237 256.488 316.209 257.75 316.181C259.041 316.125 260.387 316.083 261.79 316.055C263.22 315.999 264.539 315.97 265.745 315.97C269.027 315.97 272.155 316.349 275.128 317.108C278.102 317.866 280.711 319.115 282.955 320.857C285.227 322.57 287.022 324.83 288.341 327.638C289.659 330.418 290.318 333.858 290.318 337.958C290.318 342.366 289.561 346.101 288.046 349.162C286.531 352.223 284.484 354.721 281.903 356.659C279.322 358.569 276.321 359.958 272.898 360.829C269.504 361.671 265.913 362.093 262.127 362.093C261.229 362.093 260.107 362.065 258.76 362.008C257.414 361.952 256.039 361.896 254.637 361.84C253.234 361.783 251.902 361.727 250.64 361.671C249.405 361.615 248.465 361.587 247.82 361.587V361.419C248.016 360.829 248.185 360.071 248.325 359.145C248.494 358.217 248.62 357.08 248.704 355.732C248.816 354.356 248.9 352.728 248.956 350.847C249.012 348.965 249.04 346.761 249.04 344.233V333.619C249.04 331.092 249.012 328.888 248.956 327.006C248.9 325.124 248.816 323.496 248.704 322.12C248.62 320.744 248.494 319.593 248.325 318.666C248.185 317.74 248.016 316.981 247.82 316.392V316.223ZM321.998 339.6C322.559 339.684 323.121 339.755 323.682 339.811C324.271 339.839 324.831 339.853 325.365 339.853C328.871 339.853 331.522 338.912 333.317 337.031C335.141 335.15 336.052 332.327 336.052 328.564C336.052 325.476 335.323 323.033 333.865 321.235C332.433 319.438 330.316 318.54 327.511 318.54C326.613 318.54 325.814 318.582 325.112 318.666C324.439 318.722 323.864 318.793 323.387 318.877C322.854 318.989 322.391 319.101 321.998 319.214V339.6ZM328.436 342.338C327.875 342.422 327.314 342.478 326.753 342.507C326.22 342.507 325.673 342.507 325.112 342.507C324.663 342.507 324.172 342.493 323.639 342.464C323.106 342.436 322.559 342.394 321.998 342.338V344.402C321.998 346.901 322.026 349.091 322.082 350.973C322.138 352.826 322.209 354.427 322.293 355.775C322.406 357.122 322.531 358.26 322.672 359.186C322.812 360.085 322.98 360.829 323.177 361.419V361.587H313.457V361.419C313.653 360.829 313.821 360.071 313.962 359.145C314.13 358.217 314.256 357.08 314.34 355.732C314.452 354.356 314.537 352.728 314.593 350.847C314.649 348.965 314.677 346.761 314.677 344.233V333.619C314.677 331.092 314.649 328.901 314.593 327.048C314.537 325.167 314.452 323.552 314.34 322.204C314.256 320.829 314.13 319.677 313.962 318.75C313.821 317.824 313.653 317.065 313.457 316.476V316.308C313.906 316.336 314.383 316.364 314.888 316.392C315.308 316.42 315.771 316.448 316.276 316.476C316.809 316.476 317.342 316.476 317.875 316.476C318.773 316.476 320.105 316.392 321.872 316.223C323.639 316.055 325.715 315.97 328.1 315.97C330.512 315.97 332.7 316.265 334.664 316.855C336.655 317.445 338.353 318.287 339.755 319.382C341.186 320.477 342.279 321.811 343.037 323.383C343.823 324.956 344.215 326.711 344.215 328.649C344.215 330.165 344.005 331.555 343.584 332.818C343.163 334.054 342.574 335.178 341.817 336.188C341.059 337.171 340.162 338.042 339.124 338.8C338.086 339.558 336.936 340.218 335.673 340.78L344.467 353.205C345.225 354.216 345.983 355.185 346.74 356.112C347.525 357.038 348.268 357.866 348.97 358.597C349.671 359.326 350.33 359.945 350.948 360.45C351.565 360.927 352.084 361.25 352.505 361.419V361.587H341.48C341.48 361.334 341.298 360.899 340.933 360.282C340.597 359.636 340.19 358.976 339.713 358.302C339.264 357.6 338.802 356.926 338.324 356.28C337.875 355.634 337.539 355.157 337.314 354.848L328.436 342.338ZM372.235 333.619C372.235 331.092 372.207 328.901 372.151 327.048C372.095 325.167 372.011 323.552 371.899 322.204C371.814 320.829 371.688 319.677 371.519 318.75C371.379 317.824 371.211 317.065 371.015 316.476V316.308H380.777V316.476C380.58 317.065 380.398 317.824 380.229 318.75C380.089 319.677 379.963 320.829 379.851 322.204C379.767 323.552 379.697 325.167 379.641 327.048C379.585 328.901 379.557 331.092 379.557 333.619V344.233C379.557 346.761 379.585 348.965 379.641 350.847C379.697 352.728 379.767 354.356 379.851 355.732C379.963 357.08 380.089 358.217 380.229 359.145C380.398 360.071 380.58 360.829 380.777 361.419V361.587H371.015V361.419C371.211 360.829 371.379 360.071 371.519 359.145C371.688 358.217 371.814 357.08 371.899 355.732C372.011 354.356 372.095 352.728 372.151 350.847C372.207 348.965 372.235 346.761 372.235 344.233V333.619ZM406.693 316.308C409.442 316.308 412.261 316.308 415.15 316.308C418.039 316.28 420.718 316.252 423.187 316.223C425.655 316.167 427.773 316.111 429.54 316.055C431.335 315.999 432.514 315.914 433.075 315.802L431.434 320.351C430.676 320.154 429.821 319.972 428.867 319.803C428.026 319.663 427.002 319.537 425.796 319.425C424.617 319.284 423.243 319.214 421.672 319.214C421.111 319.214 420.466 319.242 419.736 319.298C419.007 319.326 418.306 319.369 417.632 319.425C416.847 319.481 416.047 319.537 415.234 319.593V336.231C417.507 336.203 419.554 336.146 421.377 336.062C423.201 335.978 424.757 335.866 426.048 335.725C427.562 335.613 428.895 335.458 430.045 335.262L429.035 340.274C427.493 340.077 425.936 339.909 424.365 339.768C423.018 339.628 421.532 339.516 419.904 339.432C418.278 339.319 416.721 339.263 415.234 339.263V358.386C417.843 358.386 420.241 358.288 422.429 358.091C424.617 357.866 426.525 357.628 428.152 357.375C430.059 357.066 431.784 356.716 433.327 356.322L432.359 361.84C431.939 361.812 431.251 361.77 430.298 361.714C429.372 361.686 428.39 361.658 427.352 361.63C426.342 361.63 425.389 361.615 424.491 361.587C423.593 361.587 422.977 361.587 422.64 361.587H406.693V361.419C406.889 360.829 407.057 360.071 407.197 359.145C407.365 358.217 407.492 357.08 407.576 355.732C407.689 354.356 407.773 352.728 407.829 350.847C407.885 348.965 407.913 346.761 407.913 344.233V333.619C407.913 331.092 407.885 328.901 407.829 327.048C407.773 325.167 407.689 323.552 407.576 322.204C407.492 320.829 407.365 319.677 407.197 318.75C407.057 317.824 406.889 317.065 406.693 316.476V316.308ZM465.639 319.298C465.611 321.601 465.583 323.833 465.555 325.995C465.555 326.922 465.54 327.876 465.512 328.86C465.512 329.814 465.499 330.769 465.471 331.724C465.471 332.678 465.471 333.591 465.471 334.462C465.471 335.304 465.471 336.062 465.471 336.736C465.471 338.14 465.471 339.839 465.471 341.833C465.499 343.798 465.527 345.82 465.555 347.898C465.583 349.976 465.625 351.984 465.681 353.921C465.737 355.831 465.807 357.431 465.892 358.723C466.172 358.779 466.536 358.835 466.985 358.892C467.434 358.92 467.897 358.962 468.374 359.018C468.879 359.046 469.369 359.074 469.846 359.102C470.324 359.102 470.73 359.102 471.067 359.102C472.61 359.102 474.166 359.004 475.738 358.807C477.336 358.61 478.865 358.246 480.324 357.712C481.811 357.15 483.199 356.392 484.489 355.437C485.78 354.483 486.901 353.261 487.856 351.773C488.837 350.257 489.594 348.446 490.128 346.339C490.689 344.205 490.97 341.692 490.97 338.8C490.97 332.426 489.441 327.512 486.383 324.058C483.353 320.604 478.823 318.877 472.792 318.877C472.203 318.877 471.572 318.89 470.898 318.919C470.253 318.947 469.608 318.989 468.963 319.045C468.318 319.073 467.701 319.115 467.112 319.172C466.551 319.228 466.06 319.27 465.639 319.298ZM456.929 316.223C457.602 316.252 458.234 316.265 458.823 316.265C459.327 316.293 459.819 316.308 460.295 316.308C460.772 316.308 461.123 316.308 461.347 316.308C461.739 316.308 462.441 316.293 463.451 316.265C464.46 316.237 465.597 316.209 466.859 316.181C468.149 316.125 469.496 316.083 470.898 316.055C472.329 315.999 473.647 315.97 474.854 315.97C478.135 315.97 481.264 316.349 484.237 317.108C487.21 317.866 489.819 319.115 492.063 320.857C494.335 322.57 496.131 324.83 497.449 327.638C498.768 330.418 499.427 333.858 499.427 337.958C499.427 342.366 498.669 346.101 497.155 349.162C495.639 352.223 493.592 354.721 491.011 356.659C488.43 358.569 485.429 359.958 482.007 360.829C478.613 361.671 475.022 362.093 471.235 362.093C470.337 362.093 469.216 362.065 467.869 362.008C466.523 361.952 465.148 361.896 463.745 361.84C462.343 361.783 461.011 361.727 459.748 361.671C458.514 361.615 457.574 361.587 456.929 361.587V361.419C457.126 360.829 457.294 360.071 457.434 359.145C457.602 358.217 457.728 357.08 457.813 355.732C457.925 354.356 458.009 352.728 458.065 350.847C458.121 348.965 458.149 346.761 458.149 344.233V333.619C458.149 331.092 458.121 328.888 458.065 327.006C458.009 325.124 457.925 323.496 457.813 322.12C457.728 320.744 457.602 319.593 457.434 318.666C457.294 317.74 457.126 316.981 456.929 316.392V316.223ZM571.161 344.233C571.161 346.761 571.189 348.965 571.245 350.847C571.301 352.728 571.372 354.356 571.456 355.732C571.568 357.08 571.694 358.217 571.834 359.145C571.975 360.071 572.143 360.829 572.339 361.419V361.587H562.619V361.419C562.816 360.829 562.984 360.071 563.124 359.145C563.293 358.217 563.419 357.08 563.503 355.732C563.615 354.356 563.699 352.728 563.755 350.847C563.811 348.965 563.84 346.761 563.84 344.233V333.619C563.84 331.092 563.811 328.901 563.755 327.048C563.699 325.167 563.615 323.552 563.503 322.204C563.419 320.829 563.293 319.677 563.124 318.75C562.984 317.824 562.816 317.065 562.619 316.476V316.308C564.442 316.308 566.322 316.308 568.258 316.308C570.221 316.308 572.143 316.308 574.022 316.308C575.929 316.28 577.739 316.252 579.45 316.223C581.19 316.195 582.746 316.167 584.121 316.139C585.523 316.083 586.715 316.041 587.697 316.013C588.679 315.956 589.366 315.886 589.759 315.802L588.034 320.351C587.304 320.154 586.463 319.972 585.509 319.803C584.695 319.663 583.672 319.537 582.438 319.425C581.231 319.284 579.857 319.214 578.314 319.214C577.753 319.214 577.065 319.242 576.253 319.298C575.467 319.326 574.696 319.369 573.938 319.425C573.04 319.481 572.115 319.537 571.161 319.593V334.925C573.433 334.897 575.509 334.841 577.389 334.756C579.268 334.644 580.895 334.531 582.27 334.419C583.868 334.307 585.299 334.166 586.561 333.998L585.635 339.052C583.98 338.856 582.311 338.674 580.628 338.505C579.197 338.364 577.627 338.239 575.916 338.126C574.232 338.014 572.648 337.958 571.161 337.958V344.233ZM619.378 339.6C619.939 339.684 620.5 339.755 621.061 339.811C621.65 339.839 622.211 339.853 622.744 339.853C626.25 339.853 628.901 338.912 630.696 337.031C632.52 335.15 633.431 332.327 633.431 328.564C633.431 325.476 632.702 323.033 631.243 321.235C629.813 319.438 627.695 318.54 624.89 318.54C623.992 318.54 623.193 318.582 622.492 318.666C621.818 318.722 621.243 318.793 620.766 318.877C620.233 318.989 619.77 319.101 619.378 319.214V339.6ZM625.815 342.338C625.254 342.422 624.694 342.478 624.133 342.507C623.6 342.507 623.053 342.507 622.492 342.507C622.043 342.507 621.552 342.493 621.019 342.464C620.486 342.436 619.939 342.394 619.378 342.338V344.402C619.378 346.901 619.406 349.091 619.462 350.973C619.518 352.826 619.588 354.427 619.672 355.775C619.784 357.122 619.911 358.26 620.051 359.186C620.191 360.085 620.36 360.829 620.556 361.419V361.587H610.836V361.419C611.033 360.829 611.201 360.071 611.341 359.145C611.51 358.217 611.635 357.08 611.72 355.732C611.832 354.356 611.916 352.728 611.972 350.847C612.028 348.965 612.056 346.761 612.056 344.233V333.619C612.056 331.092 612.028 328.901 611.972 327.048C611.916 325.167 611.832 323.552 611.72 322.204C611.635 320.829 611.51 319.677 611.341 318.75C611.201 317.824 611.033 317.065 610.836 316.476V316.308C611.285 316.336 611.762 316.364 612.267 316.392C612.687 316.42 613.151 316.448 613.655 316.476C614.188 316.476 614.721 316.476 615.254 316.476C616.152 316.476 617.484 316.392 619.252 316.223C621.019 316.055 623.094 315.97 625.479 315.97C627.891 315.97 630.079 316.265 632.043 316.855C634.035 317.445 635.732 318.287 637.134 319.382C638.565 320.477 639.659 321.811 640.416 323.383C641.201 324.956 641.594 326.711 641.594 328.649C641.594 330.165 641.384 331.555 640.963 332.818C640.542 334.054 639.953 335.178 639.196 336.188C638.439 337.171 637.541 338.042 636.503 338.8C635.465 339.558 634.315 340.218 633.053 340.78L641.847 353.205C642.604 354.216 643.362 355.185 644.119 356.112C644.904 357.038 645.648 357.866 646.349 358.597C647.051 359.326 647.71 359.945 648.327 360.45C648.943 360.927 649.463 361.25 649.883 361.419V361.587H638.86C638.86 361.334 638.677 360.899 638.312 360.282C637.976 359.636 637.569 358.976 637.092 358.302C636.644 357.6 636.18 356.926 635.704 356.28C635.255 355.634 634.918 355.157 634.694 354.848L625.815 342.338ZM702.687 333.45C702.687 330.952 702.673 328.775 702.645 326.922C702.617 325.068 702.561 323.468 702.477 322.12C702.392 320.772 702.294 319.649 702.181 318.75C702.069 317.824 701.929 317.065 701.761 316.476V316.308H707.946V316.476C707.778 317.065 707.638 317.824 707.526 318.75C707.414 319.677 707.315 320.829 707.231 322.204C707.146 323.552 707.09 325.167 707.062 327.048C707.034 328.901 707.021 331.092 707.021 333.619V345.708C707.021 348.74 706.544 351.324 705.59 353.458C704.664 355.592 703.374 357.347 701.719 358.723C700.064 360.071 698.086 361.054 695.786 361.671C693.514 362.318 691.018 362.64 688.296 362.64C685.547 362.64 682.995 362.331 680.638 361.714C678.282 361.124 676.235 360.169 674.495 358.849C672.784 357.529 671.423 355.817 670.414 353.711C669.432 351.604 668.941 349.05 668.941 346.045V333.619C668.941 331.092 668.913 328.901 668.857 327.048C668.801 325.167 668.717 323.552 668.605 322.204C668.492 320.829 668.366 319.677 668.225 318.75C668.085 317.824 667.917 317.065 667.721 316.476V316.308H677.44V316.476C677.244 317.065 677.075 317.824 676.935 318.75C676.795 319.649 676.669 320.772 676.557 322.12C676.473 323.468 676.403 325.068 676.347 326.922C676.291 328.775 676.263 330.952 676.263 333.45V346.045C676.263 348.544 676.641 350.608 677.399 352.236C678.155 353.837 679.152 355.115 680.386 356.069C681.62 357.024 683.023 357.698 684.593 358.091C686.165 358.457 687.778 358.638 689.432 358.638C691.115 358.638 692.743 358.457 694.313 358.091C695.912 357.698 697.329 357.024 698.563 356.069C699.825 355.115 700.821 353.837 701.551 352.236C702.308 350.608 702.687 348.544 702.687 346.045V333.45ZM734.664 333.619C734.664 331.092 734.636 328.901 734.578 327.048C734.521 325.167 734.435 323.552 734.327 322.204C734.241 320.829 734.112 319.677 733.946 318.75C733.803 317.824 733.638 317.065 733.444 316.476V316.308H743.203V316.476C743.009 317.065 742.822 317.824 742.657 318.75C742.514 319.677 742.391 320.829 742.277 322.204C742.19 323.552 742.126 325.167 742.068 327.048C742.011 328.901 741.982 331.092 741.982 333.619V344.233C741.982 346.761 742.011 348.965 742.068 350.847C742.126 352.728 742.19 354.356 742.277 355.732C742.391 357.08 742.514 358.217 742.657 359.145C742.822 360.071 743.009 360.829 743.203 361.419V361.587H733.444V361.419C733.638 360.829 733.803 360.071 733.946 359.145C734.112 358.217 734.241 357.08 734.327 355.732C734.435 354.356 734.521 352.728 734.578 350.847C734.636 348.965 734.664 346.761 734.664 344.233V333.619ZM780.688 319.425C778.139 319.425 775.812 319.537 773.708 319.761C771.633 319.986 769.838 320.225 768.322 320.477C766.577 320.786 765.012 321.123 763.604 321.488L764.452 316.055C764.868 316.111 765.558 316.153 766.513 316.181C767.461 316.209 768.459 316.237 769.5 316.265C770.563 316.265 771.561 316.28 772.487 316.308C773.443 316.308 774.096 316.308 774.462 316.308H794.368C794.699 316.308 795.316 316.308 796.214 316.308C797.14 316.28 798.124 316.265 799.165 316.265C800.199 316.237 801.198 316.209 802.153 316.181C803.101 316.153 803.79 316.111 804.214 316.055L805.054 321.488C803.704 321.123 802.167 320.786 800.422 320.477C798.936 320.225 797.14 319.986 795.036 319.761C792.961 319.537 790.62 319.425 788.013 319.425V344.233C788.013 346.761 788.042 348.965 788.099 350.847C788.149 352.728 788.221 354.356 788.307 355.732C788.415 357.08 788.544 358.217 788.688 359.145C788.825 360.071 788.997 360.829 789.191 361.419V361.587H779.467V361.419C779.669 360.829 779.834 360.071 779.977 359.145C780.114 358.217 780.243 357.08 780.351 355.732C780.466 354.356 780.552 352.728 780.609 350.847C780.66 348.965 780.688 346.761 780.688 344.233V319.425ZM845.318 325.111H844.478C844.306 324.633 844.026 324.03 843.631 323.299C843.272 322.57 842.762 321.854 842.123 321.151C841.505 320.449 840.73 319.86 839.803 319.382C838.877 318.877 837.771 318.624 836.478 318.624C835.502 318.624 834.619 318.793 833.829 319.13C833.075 319.438 832.428 319.874 831.897 320.435C831.358 320.997 830.956 321.671 830.676 322.457C830.396 323.215 830.252 324.043 830.252 324.942C830.252 326.403 830.69 327.792 831.559 329.112C832.457 330.432 833.563 331.752 834.884 333.071C836.198 334.363 837.635 335.669 839.171 336.989C840.715 338.308 842.144 339.684 843.466 341.116C844.787 342.549 845.879 344.065 846.747 345.666C847.645 347.266 848.098 348.979 848.098 350.804C848.098 352.152 847.839 353.542 847.336 354.974C846.862 356.406 846.073 357.698 844.981 358.849C843.889 360.001 842.482 360.942 840.773 361.671C839.064 362.43 836.988 362.809 834.547 362.809C833.197 362.809 831.911 362.696 830.676 362.471C829.47 362.247 828.349 361.966 827.308 361.63C826.296 361.321 825.384 360.983 824.572 360.618C823.789 360.225 823.129 359.861 822.597 359.523L823.351 351.563H824.235C824.515 352.545 824.924 353.528 825.455 354.511C826.016 355.493 826.691 356.392 827.473 357.207C828.292 357.993 829.233 358.638 830.295 359.145C831.387 359.622 832.637 359.861 834.044 359.861C835.021 359.861 835.947 359.706 836.816 359.397C837.685 359.06 838.432 358.597 839.049 358.007C839.696 357.417 840.198 356.701 840.565 355.859C840.931 354.988 841.11 354.02 841.11 352.952C841.11 351.689 840.859 350.523 840.349 349.456C839.846 348.362 839.171 347.322 838.331 346.339C837.491 345.329 836.536 344.36 835.473 343.433C834.432 342.507 833.355 341.566 832.234 340.611C831.107 339.656 830.015 338.688 828.953 337.705C827.911 336.694 826.971 335.613 826.13 334.462C825.29 333.31 824.615 332.089 824.113 330.797C823.603 329.477 823.351 328.031 823.351 326.459C823.351 324.802 823.703 323.314 824.407 321.994C825.104 320.674 826.03 319.565 827.179 318.666C828.335 317.74 829.649 317.037 831.136 316.56C832.622 316.055 834.166 315.802 835.768 315.802C836.945 315.802 838.037 315.886 839.049 316.055C840.083 316.224 841.01 316.434 841.828 316.686C842.669 316.911 843.394 317.15 844.011 317.402C844.629 317.627 845.132 317.81 845.527 317.95L845.318 325.111Z" fill="#AF530A"/>
<path d="M109.153 95.9335V17.9716H1021.16V96.3274" stroke="#AF530A" stroke-width="8" stroke-linecap="round"/>
<path d="M108.794 272.808V336.786H217.588" stroke="#AF530A" stroke-width="8" stroke-linecap="round"/>
<path d="M1021.87 273.167V336.427H878.61" stroke="#AF530A" stroke-width="8"/>
</svg>
